<?xml version="1.0" encoding="utf-8"?>
<!-- Generator: Adobe Illustrator 23.0.3, SVG Export Plug-In . SVG Version: 6.00 Build 0)  -->
<svg version="1.1" id="Laag_1" xmlns="http://www.w3.org/2000/svg" xmlns:xlink="http://www.w3.org/1999/xlink" x="0px" y="0px"
	 viewBox="0 0 96.38 116.69" style="enable-background:new 0 0 96.38 116.69;" xml:space="preserve">
<style type="text/css">
	.st0{fill:#F28D00;}
	.st1{fill:#005496;}
	.st2{fill:#FFFFFF;}
</style>
<path class="st0" d="M96.28,92.8L83.72,33.68H39.04L0,41.97v71c0,1.13,0.5,2.18,1.38,2.89c0.67,0.54,1.49,0.83,2.33,0.83
	c0.26,0,0.52-0.03,0.78-0.08l88.52-18.77h0c1.11-0.24,2.06-0.89,2.68-1.84C96.31,95.04,96.52,93.91,96.28,92.8z"/>
<path class="st1" d="M77.18,2.93C76.82,1.23,75.3,0,73.56,0H3.7C1.66,0,0,1.66,0,3.7v38.27l81.79-17.38L77.18,2.93z"/>
<g>
	<g>
		<path class="st2" d="M10.06,21.89c1.29-0.27,2.31-0.23,3.05,0.12c0.74,0.36,1.2,0.99,1.4,1.9c0.11,0.52,0.11,0.98,0.01,1.39
			c-0.11,0.4-0.31,0.75-0.6,1.05c-0.29,0.3-0.68,0.55-1.16,0.76c-0.48,0.21-1.03,0.38-1.65,0.51l-1.24,0.26l0.75,3.54l-0.9,0.19
			l-1.91-8.97c0.3-0.16,0.66-0.3,1.07-0.43C9.3,22.07,9.69,21.97,10.06,21.89z M10.27,22.66c-0.33,0.07-0.62,0.14-0.84,0.21
			C9.2,22.94,9,23.01,8.84,23.06l0.86,4.04l1.13-0.24c0.48-0.1,0.92-0.22,1.3-0.36c0.38-0.14,0.69-0.32,0.94-0.53
			c0.24-0.21,0.41-0.47,0.5-0.78c0.09-0.31,0.09-0.67,0-1.09c-0.09-0.4-0.24-0.72-0.46-0.95c-0.22-0.23-0.48-0.39-0.78-0.49
			c-0.3-0.1-0.63-0.14-0.99-0.13C10.99,22.54,10.63,22.58,10.27,22.66z"/>
		<path class="st2" d="M19.23,29.71c-0.29,0.05-0.55,0.07-0.78,0.05c-0.23-0.02-0.43-0.08-0.61-0.19c-0.17-0.11-0.32-0.26-0.44-0.46
			c-0.12-0.2-0.22-0.46-0.29-0.79l-1.79-8.45l0.82-0.34l1.82,8.58c0.04,0.21,0.1,0.38,0.17,0.5c0.07,0.12,0.15,0.21,0.24,0.27
			s0.21,0.09,0.34,0.1c0.13,0.01,0.29,0.01,0.48,0L19.23,29.71z"/>
		<path class="st2" d="M21.43,21.82c0.45-0.1,0.84-0.11,1.18-0.05c0.34,0.06,0.63,0.18,0.87,0.37c0.24,0.18,0.44,0.42,0.59,0.71
			c0.15,0.29,0.27,0.62,0.35,0.97l0.91,4.3c-0.08,0.05-0.2,0.1-0.36,0.17c-0.16,0.07-0.35,0.14-0.56,0.22
			c-0.21,0.08-0.45,0.16-0.71,0.24c-0.26,0.08-0.54,0.15-0.82,0.21c-0.36,0.08-0.7,0.11-1.02,0.09c-0.32-0.01-0.61-0.09-0.87-0.21
			c-0.26-0.12-0.48-0.31-0.67-0.55c-0.18-0.24-0.32-0.55-0.4-0.94c-0.08-0.37-0.08-0.7,0.01-1c0.08-0.29,0.24-0.55,0.46-0.78
			c0.22-0.23,0.5-0.42,0.83-0.57c0.34-0.15,0.71-0.27,1.12-0.36c0.12-0.03,0.25-0.05,0.39-0.06c0.14-0.02,0.27-0.03,0.41-0.03
			c0.13,0,0.25-0.01,0.34,0c0.1,0,0.16,0.01,0.2,0.02l-0.09-0.42c-0.05-0.24-0.12-0.46-0.2-0.68c-0.08-0.22-0.2-0.4-0.36-0.56
			c-0.16-0.15-0.35-0.26-0.59-0.33c-0.24-0.06-0.53-0.06-0.89,0.02c-0.5,0.11-0.87,0.22-1.1,0.34c-0.23,0.12-0.4,0.22-0.5,0.29
			l-0.28-0.73c0.13-0.1,0.35-0.22,0.65-0.34C20.62,22.02,20.99,21.91,21.43,21.82z M22.86,28.16c0.33-0.07,0.62-0.15,0.87-0.22
			c0.25-0.07,0.45-0.15,0.62-0.22l-0.51-2.4c-0.11-0.02-0.27-0.04-0.49-0.04c-0.22,0-0.52,0.03-0.89,0.11
			c-0.21,0.04-0.43,0.11-0.65,0.19c-0.22,0.08-0.42,0.19-0.59,0.33c-0.17,0.14-0.3,0.31-0.39,0.52c-0.09,0.2-0.1,0.45-0.04,0.74
			c0.05,0.25,0.14,0.46,0.26,0.62s0.27,0.27,0.45,0.35c0.18,0.07,0.38,0.11,0.6,0.11C22.34,28.25,22.59,28.22,22.86,28.16z"/>
		<path class="st2" d="M26.91,20.82l2.72-0.58l0.15,0.73l-2.72,0.58l0.77,3.63c0.08,0.39,0.18,0.7,0.3,0.92
			c0.12,0.23,0.25,0.39,0.4,0.5c0.15,0.11,0.32,0.16,0.51,0.17c0.19,0.01,0.38-0.01,0.59-0.06c0.36-0.08,0.64-0.18,0.84-0.31
			c0.2-0.13,0.36-0.24,0.47-0.34l0.36,0.67c-0.11,0.1-0.3,0.24-0.59,0.41c-0.29,0.17-0.61,0.29-0.97,0.37
			c-0.42,0.09-0.79,0.11-1.1,0.06c-0.31-0.05-0.57-0.17-0.79-0.36c-0.22-0.19-0.4-0.44-0.54-0.76c-0.14-0.32-0.26-0.71-0.36-1.16
			l-1.33-6.28l0.82-0.34L26.91,20.82z"/>
		<path class="st2" d="M32.99,15.95c0.37-0.08,0.68-0.11,0.92-0.11c0.25,0.01,0.41,0.03,0.49,0.05l-0.01,0.77
			c-0.11-0.02-0.26-0.04-0.46-0.05c-0.2-0.01-0.44,0.02-0.73,0.08c-0.61,0.13-1.01,0.38-1.2,0.74c-0.19,0.36-0.22,0.88-0.08,1.56
			l0.15,0.71l2.75-0.58l0.15,0.73l-2.75,0.58l1.3,6.1l-0.86,0.18l-1.61-7.56c-0.19-0.89-0.13-1.6,0.19-2.14
			C31.56,16.49,32.14,16.13,32.99,15.95z"/>
		<path class="st2" d="M42.72,21.03c0.11,0.54,0.14,1.04,0.08,1.52c-0.06,0.47-0.2,0.89-0.41,1.26c-0.21,0.37-0.49,0.68-0.83,0.93
			c-0.34,0.25-0.74,0.43-1.2,0.52c-0.46,0.1-0.89,0.1-1.31,0.01c-0.41-0.09-0.79-0.26-1.14-0.51c-0.34-0.25-0.64-0.58-0.89-0.98
			c-0.25-0.41-0.43-0.88-0.54-1.42c-0.11-0.54-0.14-1.04-0.08-1.51s0.2-0.9,0.41-1.27c0.21-0.37,0.49-0.68,0.83-0.94
			c0.34-0.25,0.74-0.43,1.2-0.52c0.46-0.1,0.89-0.1,1.31-0.01c0.41,0.09,0.79,0.26,1.14,0.52c0.34,0.25,0.64,0.58,0.89,0.99
			S42.61,20.49,42.72,21.03z M41.81,21.22c-0.18-0.85-0.52-1.49-1.03-1.91c-0.5-0.42-1.09-0.56-1.77-0.42
			c-0.68,0.14-1.16,0.51-1.45,1.1c-0.29,0.59-0.34,1.31-0.16,2.16c0.18,0.85,0.52,1.49,1.03,1.91c0.5,0.42,1.09,0.55,1.77,0.41
			c0.68-0.14,1.16-0.51,1.45-1.1C41.94,22.79,41.99,22.08,41.81,21.22z"/>
		<path class="st2" d="M46.15,16.59c0.28-0.06,0.55-0.09,0.81-0.1c0.26-0.01,0.44,0,0.55,0.02l-0.01,0.78
			c-0.08-0.02-0.23-0.03-0.45-0.02c-0.22,0-0.51,0.05-0.86,0.12c-0.37,0.08-0.66,0.17-0.87,0.27c-0.21,0.1-0.35,0.18-0.41,0.23
			l1.27,5.98l-0.86,0.18l-1.38-6.51c0.2-0.14,0.48-0.31,0.85-0.49C45.14,16.86,45.6,16.71,46.15,16.59z"/>
		<path class="st2" d="M48.84,16.4c0.24-0.12,0.56-0.28,0.95-0.45c0.39-0.17,0.91-0.33,1.56-0.47c0.86-0.18,1.54-0.06,2.03,0.35
			c0.04-0.04,0.11-0.12,0.22-0.23c0.11-0.11,0.25-0.23,0.43-0.36s0.39-0.25,0.63-0.37c0.25-0.12,0.53-0.21,0.84-0.28
			c0.52-0.11,0.96-0.12,1.31-0.04c0.35,0.09,0.65,0.25,0.88,0.49c0.23,0.24,0.42,0.55,0.57,0.92c0.14,0.37,0.26,0.79,0.36,1.25
			l0.81,3.81l-0.86,0.18l-0.75-3.54c-0.1-0.45-0.2-0.83-0.31-1.15c-0.11-0.32-0.25-0.58-0.41-0.77c-0.16-0.19-0.37-0.32-0.61-0.38
			c-0.24-0.06-0.54-0.06-0.89,0.02c-0.26,0.06-0.5,0.13-0.7,0.23c-0.21,0.09-0.38,0.19-0.52,0.3c-0.14,0.1-0.26,0.2-0.34,0.29
			c-0.09,0.09-0.15,0.16-0.18,0.2c0.13,0.21,0.24,0.46,0.34,0.73c0.1,0.28,0.18,0.57,0.25,0.89l0.82,3.88l-0.86,0.18l-0.75-3.54
			c-0.1-0.45-0.2-0.83-0.31-1.15c-0.11-0.32-0.25-0.58-0.42-0.77c-0.17-0.19-0.38-0.32-0.62-0.38c-0.25-0.06-0.56-0.05-0.93,0.02
			c-0.41,0.09-0.76,0.18-1.04,0.29c-0.28,0.1-0.45,0.18-0.52,0.24l1.27,5.99l-0.86,0.18L48.84,16.4z"/>
	</g>
</g>
<g>
	<g>
		<path class="st1" d="M13.79,47.9v1.79h-2.82v7.56h-2.1v-7.56H6.04V47.9H13.79z"/>
		<path class="st1" d="M16.54,49.96c0.59,0,1.09,0.07,1.48,0.2c0.4,0.14,0.71,0.33,0.95,0.58c0.24,0.25,0.41,0.56,0.51,0.92
			c0.1,0.36,0.15,0.76,0.15,1.2v4.18c-0.29,0.06-0.69,0.14-1.2,0.22c-0.51,0.09-1.13,0.13-1.86,0.13c-0.46,0-0.88-0.04-1.25-0.12
			c-0.37-0.08-0.69-0.21-0.96-0.4c-0.27-0.18-0.48-0.42-0.62-0.72s-0.22-0.66-0.22-1.09c0-0.41,0.08-0.76,0.25-1.05
			c0.17-0.29,0.39-0.52,0.67-0.69s0.6-0.29,0.96-0.37c0.36-0.08,0.73-0.11,1.12-0.11c0.26,0,0.49,0.01,0.69,0.03
			c0.2,0.02,0.37,0.05,0.49,0.09v-0.19c0-0.34-0.1-0.62-0.31-0.82s-0.57-0.31-1.08-0.31c-0.34,0-0.68,0.02-1.01,0.07
			c-0.33,0.05-0.62,0.12-0.86,0.21l-0.26-1.62c0.12-0.04,0.26-0.07,0.44-0.11s0.37-0.08,0.57-0.11c0.21-0.03,0.43-0.06,0.65-0.08
			C16.08,49.97,16.31,49.96,16.54,49.96z M16.7,55.85c0.2,0,0.39,0,0.57-0.01c0.18-0.01,0.32-0.02,0.43-0.04v-1.52
			c-0.08-0.02-0.2-0.04-0.36-0.05c-0.16-0.02-0.31-0.03-0.45-0.03c-0.19,0-0.37,0.01-0.53,0.03c-0.17,0.02-0.31,0.07-0.44,0.13
			c-0.13,0.06-0.23,0.15-0.3,0.26c-0.07,0.11-0.11,0.24-0.11,0.4c0,0.31,0.11,0.53,0.32,0.65C16.04,55.78,16.33,55.85,16.7,55.85z"
			/>
		<path class="st1" d="M24.29,57.38c-0.58-0.01-1.06-0.07-1.42-0.19c-0.36-0.12-0.65-0.28-0.86-0.49s-0.36-0.47-0.43-0.77
			c-0.08-0.3-0.11-0.64-0.11-1.02V47.1l2.01-0.32v7.73c0,0.18,0.01,0.34,0.04,0.49c0.03,0.14,0.08,0.27,0.16,0.36
			c0.08,0.1,0.19,0.18,0.33,0.24c0.14,0.06,0.34,0.1,0.58,0.12L24.29,57.38z"/>
		<path class="st1" d="M25.38,53.75c0-0.63,0.1-1.18,0.29-1.65c0.19-0.47,0.45-0.87,0.76-1.18c0.31-0.31,0.68-0.55,1.09-0.72
			c0.41-0.16,0.83-0.24,1.26-0.24c1.01,0,1.8,0.31,2.39,0.92c0.58,0.62,0.88,1.52,0.88,2.72c0,0.12,0,0.25-0.01,0.38
			c-0.01,0.14-0.02,0.26-0.03,0.37h-4.56c0.04,0.41,0.24,0.74,0.58,0.98s0.8,0.36,1.38,0.36c0.37,0,0.73-0.03,1.09-0.1
			s0.65-0.15,0.87-0.25l0.27,1.63c-0.11,0.05-0.25,0.11-0.43,0.16c-0.18,0.05-0.38,0.1-0.6,0.14c-0.22,0.04-0.46,0.07-0.71,0.1
			s-0.5,0.04-0.76,0.04c-0.64,0-1.19-0.09-1.67-0.28c-0.47-0.19-0.86-0.45-1.17-0.78c-0.31-0.33-0.54-0.72-0.69-1.17
			S25.38,54.28,25.38,53.75z M30.1,52.98c-0.01-0.17-0.04-0.34-0.09-0.5c-0.05-0.16-0.13-0.31-0.23-0.43s-0.23-0.23-0.39-0.31
			c-0.16-0.08-0.35-0.12-0.59-0.12c-0.23,0-0.42,0.04-0.58,0.11c-0.16,0.08-0.3,0.18-0.4,0.3s-0.19,0.27-0.25,0.44
			c-0.06,0.17-0.1,0.34-0.13,0.51H30.1z"/>
		<path class="st1" d="M33.59,50.39c0.34-0.1,0.78-0.19,1.32-0.28s1.11-0.13,1.7-0.13c0.6,0,1.1,0.08,1.5,0.24
			c0.4,0.16,0.72,0.38,0.95,0.67c0.23,0.29,0.4,0.63,0.5,1.03c0.1,0.4,0.15,0.84,0.15,1.32v4.01h-2.01v-3.76
			c0-0.65-0.09-1.11-0.26-1.38c-0.17-0.27-0.49-0.4-0.96-0.4c-0.14,0-0.3,0.01-0.46,0.02c-0.16,0.01-0.31,0.03-0.43,0.05v5.48h-2.01
			V50.39z"/>
		<path class="st1" d="M41.47,48.38l2.01-0.32v2.09h2.42v1.67h-2.42v2.5c0,0.42,0.07,0.76,0.22,1.01c0.15,0.25,0.45,0.38,0.9,0.38
			c0.22,0,0.44-0.02,0.67-0.06c0.23-0.04,0.44-0.1,0.63-0.17l0.28,1.57c-0.24,0.1-0.51,0.18-0.81,0.26
			c-0.3,0.07-0.66,0.11-1.09,0.11c-0.55,0-1-0.07-1.36-0.22c-0.36-0.15-0.65-0.36-0.86-0.62c-0.22-0.27-0.37-0.59-0.45-0.96
			c-0.09-0.38-0.13-0.8-0.13-1.25V48.38z"/>
		<path class="st1" d="M53.1,56.3c0.19-0.39,0.38-0.83,0.58-1.33c0.2-0.5,0.39-1.02,0.58-1.55c0.18-0.53,0.36-1.07,0.51-1.62
			c0.16-0.54,0.29-1.05,0.4-1.53h0.88c-0.16,0.64-0.34,1.27-0.54,1.89s-0.41,1.23-0.63,1.82s-0.45,1.17-0.69,1.71
			c-0.24,0.55-0.47,1.07-0.7,1.55h-0.82c-0.24-0.49-0.47-1-0.71-1.55c-0.23-0.55-0.46-1.12-0.69-1.71c-0.22-0.59-0.43-1.2-0.63-1.82
			s-0.38-1.25-0.54-1.89h0.93c0.11,0.48,0.24,0.99,0.4,1.53c0.16,0.54,0.33,1.08,0.51,1.62c0.19,0.54,0.38,1.05,0.58,1.55
			C52.71,55.47,52.91,55.92,53.1,56.3z"/>
		<path class="st1" d="M63.41,53.77c0,0.55-0.08,1.05-0.24,1.5s-0.38,0.83-0.66,1.15c-0.28,0.31-0.62,0.56-1,0.74
			s-0.81,0.26-1.28,0.26c-0.47,0-0.9-0.09-1.28-0.26s-0.72-0.42-1.01-0.74c-0.28-0.31-0.5-0.7-0.66-1.15s-0.24-0.95-0.24-1.5
			c0-0.55,0.08-1.05,0.24-1.5s0.38-0.83,0.66-1.15c0.28-0.32,0.62-0.57,1.01-0.74c0.39-0.18,0.81-0.26,1.28-0.26
			c0.47,0,0.9,0.09,1.28,0.26c0.39,0.18,0.72,0.42,1,0.74c0.28,0.32,0.5,0.7,0.66,1.15S63.41,53.22,63.41,53.77z M62.48,53.77
			c0-0.87-0.2-1.57-0.61-2.08s-0.95-0.78-1.65-0.78c-0.69,0-1.24,0.26-1.65,0.78s-0.61,1.21-0.61,2.08s0.2,1.56,0.61,2.08
			s0.95,0.77,1.65,0.77c0.69,0,1.24-0.26,1.65-0.77S62.48,54.64,62.48,53.77z"/>
		<path class="st1" d="M71.26,53.77c0,0.55-0.08,1.05-0.24,1.5s-0.38,0.83-0.66,1.15c-0.28,0.31-0.62,0.56-1,0.74
			s-0.81,0.26-1.28,0.26c-0.47,0-0.9-0.09-1.28-0.26s-0.72-0.42-1.01-0.74c-0.28-0.31-0.5-0.7-0.66-1.15s-0.24-0.95-0.24-1.5
			c0-0.55,0.08-1.05,0.24-1.5s0.38-0.83,0.66-1.15c0.28-0.32,0.62-0.57,1.01-0.74c0.39-0.18,0.81-0.26,1.28-0.26
			c0.47,0,0.9,0.09,1.28,0.26c0.39,0.18,0.72,0.42,1,0.74c0.28,0.32,0.5,0.7,0.66,1.15S71.26,53.22,71.26,53.77z M70.33,53.77
			c0-0.87-0.2-1.57-0.61-2.08s-0.95-0.78-1.65-0.78c-0.69,0-1.24,0.26-1.65,0.78s-0.61,1.21-0.61,2.08s0.2,1.56,0.61,2.08
			s0.95,0.77,1.65,0.77c0.69,0,1.24-0.26,1.65-0.77S70.33,54.64,70.33,53.77z"/>
		<path class="st1" d="M75.54,50.14c0.29,0,0.56,0.02,0.82,0.07c0.26,0.05,0.43,0.09,0.53,0.14l-0.18,0.76
			c-0.07-0.04-0.22-0.07-0.44-0.11c-0.22-0.04-0.51-0.06-0.87-0.06c-0.38,0-0.68,0.03-0.91,0.08c-0.23,0.05-0.38,0.1-0.45,0.13v6.11
			h-0.88V50.6c0.23-0.1,0.54-0.2,0.93-0.3C74.49,50.19,74.97,50.14,75.54,50.14z"/>
		<path class="st1" d="M13.79,64.46v1.79h-2.82v7.56h-2.1v-7.56H6.04v-1.79H13.79z"/>
		<path class="st1" d="M13.65,70.32c0-0.63,0.1-1.18,0.29-1.65c0.19-0.47,0.45-0.87,0.76-1.18c0.31-0.31,0.68-0.55,1.09-0.72
			c0.41-0.16,0.83-0.24,1.26-0.24c1.01,0,1.8,0.31,2.39,0.92c0.58,0.62,0.88,1.52,0.88,2.72c0,0.12,0,0.25-0.01,0.38
			c-0.01,0.14-0.02,0.26-0.03,0.37h-4.56c0.04,0.41,0.24,0.74,0.58,0.98s0.8,0.36,1.38,0.36c0.37,0,0.73-0.03,1.09-0.1
			s0.65-0.15,0.87-0.25l0.27,1.63c-0.11,0.05-0.25,0.11-0.43,0.16c-0.18,0.05-0.38,0.1-0.6,0.14c-0.22,0.04-0.46,0.07-0.71,0.1
			S17.66,74,17.4,74c-0.64,0-1.19-0.09-1.67-0.28c-0.47-0.19-0.86-0.45-1.17-0.78c-0.31-0.33-0.54-0.72-0.69-1.17
			S13.65,70.84,13.65,70.32z M18.38,69.55c-0.01-0.17-0.04-0.34-0.09-0.5c-0.05-0.16-0.13-0.31-0.23-0.43s-0.23-0.23-0.39-0.31
			c-0.16-0.08-0.35-0.12-0.59-0.12c-0.23,0-0.42,0.04-0.58,0.11c-0.16,0.08-0.3,0.18-0.4,0.3s-0.19,0.27-0.25,0.44
			c-0.06,0.17-0.1,0.34-0.13,0.51H18.38z"/>
		<path class="st1" d="M21.53,70.27c0-0.51,0.08-1,0.25-1.45c0.17-0.45,0.41-0.85,0.72-1.19s0.7-0.6,1.15-0.8
			c0.45-0.2,0.96-0.3,1.54-0.3c0.38,0,0.72,0.03,1.04,0.1s0.62,0.16,0.92,0.29l-0.42,1.61c-0.19-0.07-0.4-0.13-0.62-0.19
			c-0.23-0.05-0.48-0.08-0.76-0.08c-0.59,0-1.04,0.18-1.33,0.55c-0.29,0.37-0.44,0.85-0.44,1.46c0,0.64,0.14,1.13,0.41,1.48
			c0.27,0.35,0.75,0.53,1.44,0.53c0.24,0,0.5-0.02,0.78-0.07c0.28-0.04,0.53-0.12,0.77-0.22l0.28,1.65
			c-0.23,0.1-0.53,0.18-0.88,0.26C26.04,73.97,25.65,74,25.23,74c-0.65,0-1.21-0.1-1.67-0.29s-0.85-0.46-1.15-0.79
			c-0.3-0.33-0.52-0.73-0.66-1.18C21.6,71.29,21.53,70.8,21.53,70.27z"/>
		<path class="st1" d="M28.62,73.81V63.67l2.01-0.32v3.4c0.14-0.04,0.31-0.09,0.52-0.13c0.21-0.04,0.42-0.06,0.61-0.06
			c0.58,0,1.05,0.08,1.44,0.24s0.69,0.38,0.92,0.67c0.23,0.29,0.39,0.63,0.49,1.03c0.09,0.4,0.14,0.84,0.14,1.32v4.01h-2.01v-3.76
			c0-0.65-0.08-1.11-0.25-1.38c-0.17-0.27-0.47-0.4-0.92-0.4c-0.18,0-0.35,0.02-0.51,0.05c-0.16,0.03-0.3,0.07-0.43,0.1v5.4H28.62z"
			/>
		<path class="st1" d="M36.56,66.96c0.34-0.1,0.78-0.19,1.32-0.28s1.11-0.13,1.7-0.13c0.6,0,1.1,0.08,1.5,0.24
			c0.4,0.16,0.72,0.38,0.95,0.67c0.23,0.29,0.4,0.63,0.5,1.03c0.1,0.4,0.15,0.84,0.15,1.32v4.01h-2.01v-3.76
			c0-0.65-0.09-1.11-0.26-1.38c-0.17-0.27-0.49-0.4-0.96-0.4c-0.14,0-0.3,0.01-0.46,0.02c-0.16,0.01-0.31,0.03-0.43,0.05v5.48h-2.01
			V66.96z"/>
		<path class="st1" d="M51.15,70.25c0,0.56-0.08,1.07-0.24,1.53c-0.16,0.46-0.4,0.86-0.7,1.19c-0.31,0.33-0.67,0.58-1.1,0.76
			S48.2,74,47.67,74c-0.52,0-1-0.09-1.42-0.27s-0.79-0.43-1.1-0.76c-0.31-0.33-0.54-0.72-0.72-1.19c-0.17-0.46-0.26-0.97-0.26-1.53
			c0-0.56,0.09-1.07,0.26-1.52c0.18-0.46,0.42-0.85,0.73-1.17c0.31-0.32,0.68-0.58,1.11-0.76c0.43-0.18,0.89-0.27,1.4-0.27
			c0.51,0,0.98,0.09,1.41,0.27c0.43,0.18,0.79,0.43,1.1,0.76c0.31,0.32,0.54,0.71,0.71,1.17C51.06,69.19,51.15,69.69,51.15,70.25z
			 M49.1,70.25c0-0.62-0.12-1.11-0.37-1.46c-0.25-0.35-0.6-0.53-1.06-0.53c-0.46,0-0.81,0.18-1.07,0.53
			c-0.25,0.36-0.38,0.84-0.38,1.46s0.13,1.11,0.38,1.48s0.61,0.55,1.07,0.55c0.46,0,0.81-0.18,1.06-0.55S49.1,70.87,49.1,70.25z"/>
		<path class="st1" d="M55.53,73.95c-0.58-0.01-1.06-0.07-1.42-0.19c-0.36-0.12-0.65-0.28-0.86-0.49s-0.36-0.47-0.43-0.77
			c-0.08-0.3-0.11-0.64-0.11-1.02v-7.81l2.01-0.32v7.73c0,0.18,0.01,0.34,0.04,0.49c0.03,0.14,0.08,0.27,0.16,0.36
			c0.08,0.1,0.19,0.18,0.33,0.24c0.14,0.06,0.34,0.1,0.58,0.12L55.53,73.95z"/>
		<path class="st1" d="M63.6,70.25c0,0.56-0.08,1.07-0.24,1.53c-0.16,0.46-0.4,0.86-0.7,1.19c-0.31,0.33-0.67,0.58-1.1,0.76
			S60.65,74,60.12,74c-0.52,0-1-0.09-1.42-0.27s-0.79-0.43-1.1-0.76c-0.31-0.33-0.54-0.72-0.72-1.19c-0.17-0.46-0.26-0.97-0.26-1.53
			c0-0.56,0.09-1.07,0.26-1.52c0.18-0.46,0.42-0.85,0.73-1.17c0.31-0.32,0.68-0.58,1.11-0.76c0.43-0.18,0.89-0.27,1.4-0.27
			c0.51,0,0.98,0.09,1.41,0.27c0.43,0.18,0.79,0.43,1.1,0.76c0.31,0.32,0.54,0.71,0.71,1.17C63.52,69.19,63.6,69.69,63.6,70.25z
			 M61.55,70.25c0-0.62-0.12-1.11-0.37-1.46c-0.25-0.35-0.6-0.53-1.06-0.53c-0.46,0-0.81,0.18-1.07,0.53
			c-0.25,0.36-0.38,0.84-0.38,1.46s0.13,1.11,0.38,1.48s0.61,0.55,1.07,0.55c0.46,0,0.81-0.18,1.06-0.55S61.55,70.87,61.55,70.25z"
			/>
		<path class="st1" d="M71.28,72.92c0,1.16-0.29,2.02-0.88,2.58c-0.59,0.56-1.5,0.84-2.73,0.84c-0.43,0-0.86-0.04-1.3-0.11
			c-0.43-0.08-0.83-0.18-1.2-0.3l0.35-1.69c0.31,0.13,0.65,0.22,0.99,0.3c0.35,0.07,0.74,0.11,1.18,0.11c0.58,0,0.98-0.13,1.22-0.38
			c0.24-0.25,0.36-0.58,0.36-0.97v-0.26c-0.22,0.1-0.44,0.17-0.67,0.22s-0.48,0.07-0.75,0.07c-0.98,0-1.73-0.29-2.25-0.87
			c-0.52-0.58-0.78-1.39-0.78-2.44c0-0.52,0.08-1,0.24-1.42c0.16-0.43,0.4-0.79,0.71-1.1c0.31-0.31,0.69-0.54,1.14-0.71
			c0.45-0.17,0.96-0.25,1.52-0.25c0.24,0,0.49,0.01,0.75,0.03s0.51,0.05,0.76,0.09c0.25,0.04,0.49,0.08,0.72,0.13
			c0.23,0.05,0.43,0.1,0.61,0.16V72.92z M66.87,70.04c0,1.12,0.45,1.69,1.36,1.69c0.21,0,0.4-0.03,0.58-0.08
			c0.18-0.05,0.33-0.12,0.46-0.19v-3.21c-0.1-0.02-0.22-0.03-0.35-0.05c-0.13-0.01-0.29-0.02-0.47-0.02c-0.53,0-0.93,0.18-1.19,0.53
			C67,69.05,66.87,69.5,66.87,70.04z"/>
		<path class="st1" d="M75.37,64.67c0,0.37-0.12,0.66-0.36,0.87s-0.52,0.32-0.84,0.32s-0.6-0.11-0.84-0.32s-0.36-0.5-0.36-0.87
			s0.12-0.66,0.36-0.87c0.24-0.21,0.52-0.32,0.84-0.32s0.6,0.11,0.84,0.32C75.25,64.01,75.37,64.3,75.37,64.67z M75.18,73.81h-2.01
			v-7.1h2.01V73.81z"/>
		<path class="st1" d="M76.73,70.32c0-0.63,0.1-1.18,0.29-1.65c0.19-0.47,0.45-0.87,0.76-1.18c0.31-0.31,0.68-0.55,1.09-0.72
			c0.41-0.16,0.83-0.24,1.26-0.24c1.01,0,1.8,0.31,2.39,0.92c0.58,0.62,0.88,1.52,0.88,2.72c0,0.12,0,0.25-0.01,0.38
			c-0.01,0.14-0.02,0.26-0.03,0.37h-4.56c0.04,0.41,0.24,0.74,0.58,0.98s0.8,0.36,1.38,0.36c0.37,0,0.73-0.03,1.09-0.1
			s0.65-0.15,0.87-0.25l0.27,1.63c-0.11,0.05-0.25,0.11-0.43,0.16c-0.18,0.05-0.38,0.1-0.6,0.14c-0.22,0.04-0.46,0.07-0.71,0.1
			S80.73,74,80.48,74c-0.64,0-1.19-0.09-1.67-0.28c-0.47-0.19-0.86-0.45-1.17-0.78c-0.31-0.33-0.54-0.72-0.69-1.17
			S76.73,70.84,76.73,70.32z M81.45,69.55c-0.01-0.17-0.04-0.34-0.09-0.5c-0.05-0.16-0.13-0.31-0.23-0.43s-0.23-0.23-0.39-0.31
			c-0.16-0.08-0.35-0.12-0.59-0.12c-0.23,0-0.42,0.04-0.58,0.11c-0.16,0.08-0.3,0.18-0.4,0.3s-0.19,0.27-0.25,0.44
			c-0.06,0.17-0.1,0.34-0.13,0.51H81.45z"/>
	</g>
</g>
</svg>
