<?xml version="1.0" encoding="UTF-8"?><svg id="Laag_2" xmlns="http://www.w3.org/2000/svg" viewBox="0 0 1096.92 318.88"><defs><style>.cls-1{fill:#0d2212;}.cls-1,.cls-2{stroke-width:0px;}.cls-2{fill:#6bf983;}</style></defs><g id="Laag_1-2"><path class="cls-1" d="M559.62,120.18c-4.31-8.29-10.29-14.56-17.95-18.79-7.66-4.23-16.51-6.34-26.57-6.34-11.01,0-20.82,2.48-29.44,7.42-8.62,4.95-15.36,11.97-20.22,21.06-4.87,9.09-7.3,19.63-7.3,31.59s2.43,22.54,7.3,31.71c4.87,9.18,11.61,16.24,20.22,21.18,8.62,4.95,18.43,7.42,29.44,7.42,14.84,0,26.88-4.15,36.14-12.45,9.25-8.29,14.92-19.54,16.99-33.75h-62.47v-21.78h91.67v21.3c-1.76,12.92-6.34,24.81-13.76,35.66-7.42,10.85-17.08,19.51-28.96,25.97-11.89,6.46-25.09,9.69-39.61,9.69-15.64,0-29.92-3.63-42.84-10.89-12.92-7.26-23.18-17.35-30.75-30.28-7.58-12.92-11.37-27.52-11.37-43.8s3.79-30.87,11.37-43.8c7.58-12.92,17.87-23.01,30.87-30.28,13-7.26,27.24-10.89,42.72-10.89,17.71,0,33.47,4.35,47.27,13.04,13.8,8.7,23.81,21.02,30.04,36.98h-32.79Z"/><path class="cls-1" d="M679.05,234.46c-8.94-3.91-15.96-9.45-21.06-16.63-5.11-7.18-7.66-15.56-7.66-25.13h29.2c.64,7.18,3.47,13.08,8.5,17.71,5.03,4.63,12.09,6.94,21.18,6.94s16.75-2.27,22.02-6.82c5.26-4.55,7.9-10.41,7.9-17.59,0-5.58-1.64-10.13-4.91-13.64-3.27-3.51-7.34-6.22-12.21-8.14-4.87-1.91-11.61-3.99-20.22-6.22-10.85-2.87-19.67-5.78-26.45-8.74-6.78-2.95-12.56-7.54-17.35-13.76s-7.18-14.52-7.18-24.89c0-9.57,2.39-17.95,7.18-25.13,4.79-7.18,11.49-12.68,20.1-16.51,8.62-3.83,18.59-5.74,29.92-5.74,16.11,0,29.32,4.03,39.61,12.09,10.29,8.06,16,19.11,17.11,33.15h-30.16c-.48-6.06-3.35-11.25-8.62-15.56s-12.21-6.46-20.82-6.46c-7.82,0-14.2,2-19.15,5.98-4.95,3.99-7.42,9.73-7.42,17.23,0,5.11,1.56,9.3,4.67,12.56,3.11,3.27,7.06,5.86,11.85,7.78s11.33,3.99,19.62,6.22c11.01,3.03,19.98,6.07,26.93,9.09,6.94,3.03,12.84,7.7,17.71,14,4.87,6.31,7.3,14.72,7.3,25.25,0,8.46-2.27,16.44-6.82,23.93-4.55,7.5-11.17,13.52-19.86,18.07-8.7,4.55-18.95,6.82-30.75,6.82-11.17,0-21.22-1.95-30.16-5.86Z"/><path class="cls-1" d="M856.39,94.34v48.82h57.44v22.26h-57.44v50.98h64.62v22.26h-91.9V72.08h91.9v22.26h-64.62Z"/><path class="cls-1" d="M1009.32,234.46c-8.94-3.91-15.96-9.45-21.06-16.63-5.11-7.18-7.66-15.56-7.66-25.13h29.2c.64,7.18,3.47,13.08,8.5,17.71,5.03,4.63,12.09,6.94,21.18,6.94s16.75-2.27,22.02-6.82c5.26-4.55,7.9-10.41,7.9-17.59,0-5.58-1.64-10.13-4.91-13.64-3.27-3.51-7.34-6.22-12.21-8.14-4.87-1.91-11.61-3.99-20.22-6.22-10.85-2.87-19.67-5.78-26.45-8.74-6.78-2.95-12.56-7.54-17.35-13.76s-7.18-14.52-7.18-24.89c0-9.57,2.39-17.95,7.18-25.13,4.79-7.18,11.49-12.68,20.1-16.51,8.62-3.83,18.59-5.74,29.92-5.74,16.11,0,29.32,4.03,39.61,12.09,10.29,8.06,16,19.11,17.11,33.15h-30.16c-.48-6.06-3.35-11.25-8.62-15.56s-12.21-6.46-20.82-6.46c-7.82,0-14.2,2-19.15,5.98-4.95,3.99-7.42,9.73-7.42,17.23,0,5.11,1.56,9.3,4.67,12.56,3.11,3.27,7.06,5.86,11.85,7.78s11.33,3.99,19.62,6.22c11.01,3.03,19.98,6.07,26.93,9.09,6.94,3.03,12.84,7.7,17.71,14,4.87,6.31,7.3,14.72,7.3,25.25,0,8.46-2.27,16.44-6.82,23.93-4.55,7.5-11.17,13.52-19.86,18.07-8.7,4.55-18.95,6.82-30.75,6.82-11.17,0-21.22-1.95-30.16-5.86Z"/><circle class="cls-1" cx="159.44" cy="159.44" r="159.44"/><path class="cls-2" d="M159.44,29.97c-71.51,0-129.48,57.97-129.48,129.48,0,21.97,5.48,42.66,15.14,60.78l33.33-19.2c-6.59-12.83-10.07-27.17-10.07-41.5.09-50.11,40.85-90.88,90.88-90.88,15.8,0,31.46,4.16,45.28,12.03l10.61,6.03-29.77,17.21-3.16-1.27c-7.38-2.97-15.1-4.48-22.95-4.48-30.39,0-56.48,22.69-60.69,52.78-.39,3-.59,5.81-.59,8.58,0,11.56,3.24,22.85,9.38,32.62,2.08,3.33,4.57,6.54,7.62,9.83,11.44,11.96,27.55,18.83,44.2,18.83,33.79,0,61.28-27.49,61.28-61.28,0-2.82-.18-5.55-.56-8.31l-40.18,23.18-13.76-23.89,69.92-40.36,3.4,6.4c2.5,4.71,4.44,9.17,5.92,13.62,3.22,9.14,4.86,18.96,4.86,29.19,0,50.11-40.77,90.88-90.87,90.88-24.03,0-47.49-9.77-64.45-26.82l-34.06,19.69c23.75,28.02,59.2,45.82,98.81,45.82,71.51,0,129.48-57.97,129.48-129.48S230.95,29.97,159.44,29.97Z"/></g></svg>